<?xml version="1.0" encoding="utf-8"?>
<!-- Generator: Adobe Illustrator 15.0.2, SVG Export Plug-In . SVG Version: 6.00 Build 0)  -->
<!DOCTYPE svg PUBLIC "-//W3C//DTD SVG 1.1//EN" "http://www.w3.org/Graphics/SVG/1.1/DTD/svg11.dtd">
<svg version="1.1" id="Layer_1" xmlns="http://www.w3.org/2000/svg" xmlns:xlink="http://www.w3.org/1999/xlink" x="0px" y="0px"
	 width="492px" height="124px" viewBox="0 0 492 124" enable-background="new 0 0 492 124" xml:space="preserve">
<path fill="#2D2E87" d="M185.118,87.752h-24.263c-2.739,0-3.392-0.986-3.392-3.575V5.651c0-2.589,1.175-3.205,3.914-3.205h19.567
	c21.002,0,32.743,6.04,32.743,20.833c0,8.629-5.219,16.149-14.741,18.122v0.123c12.392,0.863,21.784,8.876,21.784,21.326
	C220.73,82.821,203.642,87.752,185.118,87.752 M181.466,14.527h-7.305v22.929h6.783c9.523,0,16.306-2.342,16.306-12.328
	C197.25,17.115,190.597,14.527,181.466,14.527z M196.728,50.893c-4.044-1.849-8.479-2.219-13.957-2.219c-0.914,0-7.436,0-8.61,0
	v26.874h9.653c4.565,0,9.001-0.37,12.262-1.603c4.566-1.85,7.566-5.67,7.566-11.588C203.642,56.563,200.902,52.865,196.728,50.893z"
	/>
<path fill="#2D2E87" d="M253.866,87.752h-24.263c-2.739,0-3.392-0.986-3.392-3.575V5.651c0-2.589,1.175-3.205,3.914-3.205h19.567
	c21.002,0,32.742,6.04,32.742,20.833c0,8.629-5.218,16.149-14.741,18.122v0.123c12.393,0.863,21.785,8.876,21.785,21.326
	C289.479,82.821,272.39,87.752,253.866,87.752 M250.214,14.527h-7.305v22.929h6.783c9.522,0,16.306-2.342,16.306-12.328
	C265.998,17.115,259.345,14.527,250.214,14.527z M265.477,50.893c-4.044-1.849-8.479-2.219-13.958-2.219c-0.913,0-7.436,0-8.609,0
	v26.874h9.652c4.566,0,9.001-0.37,12.263-1.603c4.565-1.85,7.565-5.67,7.565-11.588C272.39,56.563,269.65,52.865,265.477,50.893z"/>
<path fill="#2D2E87" d="M321.05,89.232c-7.827,0-17.089-1.357-24.916-3.945c-2.348-0.863-2.608-2.219-1.957-3.945l2.74-8.013
	c0.391-1.233,1.043-1.972,2.348-1.972c0.521,0,1.173,0.123,1.957,0.368c6.131,2.097,12.914,3.699,19.437,3.699
	c7.044,0,15.001-3.205,15.001-10.972c0-5.67-4.435-8.753-9.522-11.095l-16.958-8.013c-9.262-4.314-15.393-11.587-15.393-21.203
	c0-15.04,15.653-23.299,30.133-23.299c8.609,0,15.784,1.232,23.351,4.314c1.695,0.74,2.608,1.48,2.608,2.466
	c0,0.493-0.13,0.986-0.391,1.602l-3.131,7.52c-0.522,1.356-1.305,1.85-2.218,1.85c-0.652,0-1.305-0.247-2.087-0.494
	c-5.349-2.095-12.002-3.821-17.22-3.821c-6.131,0-13.175,2.465-13.175,9.369c0,5.054,4.957,8.013,9.262,9.985l14.479,6.657
	c10.306,4.684,17.35,11.218,17.35,22.559C352.748,79.986,338.008,89.232,321.05,89.232"/>
<path fill="#2D2E87" d="M422.801,87.752H410.93c-2.348,0-3.913-0.616-5.087-2.465l-18.785-28.97h-10.044V84.67
	c0,1.849-0.783,3.082-3.001,3.082h-10.696c-2.218,0-3.131-0.986-3.131-3.082V6.02c0-2.712,0.652-3.574,3.522-3.574h19.306
	c11.35,0,23.351,1.602,30.265,9.122c4.174,4.561,6.261,10.602,6.261,17.258c0,11.342-6.392,20.218-16.827,24.532l21.392,31.189
	c0.393,0.616,0.653,1.233,0.653,1.727C424.757,87.259,423.975,87.752,422.801,87.752 M383.536,14.527h-6.522v29.832h8.088
	c10.436,0,17.35-5.301,17.35-15.286C402.451,18.348,394.885,14.527,383.536,14.527z"/>
<path fill="#2D2E87" d="M489.71,84.177c-8.609,3.329-16.437,5.056-25.959,5.056c-27.524,0-40.961-18.368-40.961-43.763
	c0-25.272,16.046-44.626,42.266-44.626c9.001,0,17.088,1.726,24.523,5.177c1.565,0.74,2.088,1.356,2.088,2.096
	c0,0.493-0.131,0.986-0.392,1.602l-3,7.767c-0.392,1.11-1.044,1.603-1.826,1.603c-0.392,0-0.913-0.247-1.436-0.493
	c-6.522-3.206-12.393-4.438-18.915-4.438c-18.132,0-25.176,15.779-25.176,30.695c0,18.985,9.392,31.066,25.438,31.066
	c6.261,0,12.653-1.356,18.784-3.945c0.652-0.247,1.174-0.492,1.565-0.492c0.913,0,1.565,0.615,2.087,1.849l2.609,6.657
	c0.261,0.615,0.391,1.232,0.391,1.726C491.797,82.821,491.275,83.561,489.71,84.177"/>
<path fill="#2D2E87" d="M166.074,121.931c-1.474,0-3.243-0.852-4.16-1.867l-0.131,1.08c-0.033,0.296-0.295,0.395-0.721,0.395h-1.966
	c-0.556,0-0.786-0.262-0.786-0.82V99.359c0-0.524,0.131-0.819,0.655-0.886l2.752-0.359c0.328,0,0.557,0.131,0.557,0.654v8.061
	c1.048-0.918,2.621-1.606,4.325-1.606c1.801,0,3.145,0.591,4.193,1.539c1.736,1.54,2.49,4.097,2.49,6.849
	C173.282,118.131,170.956,121.931,166.074,121.931 M165.648,108.565c-1.212,0-2.489,0.653-3.374,1.474v7.011
	c0.787,0.884,1.998,1.605,3.21,1.605c2.851,0,3.703-2.457,3.703-5.014C169.187,110.989,168.368,108.565,165.648,108.565z"/>
<path fill="#2D2E87" d="M178.132,103.552c-1.081,0-2.227-0.721-2.227-2.03c0-1.311,1.081-2.097,2.227-2.097
	c1.114,0,2.196,0.753,2.196,2.064C180.328,102.766,179.213,103.552,178.132,103.552 M180.131,120.718c0,0.59-0.262,0.82-0.819,0.82
	h-2.293c-0.59,0-0.852-0.23-0.852-0.82v-14.314c0-0.559,0.328-0.754,0.852-0.754h2.293c0.524,0,0.819,0.164,0.819,0.754V120.718z"/>
<path fill="#2D2E87" d="M190.746,121.931c-5.34,0-7.797-3.604-7.797-8.387c0-4.717,2.883-8.321,7.993-8.321
	c5.34,0,7.797,3.537,7.797,8.354C198.739,118.295,195.856,121.931,190.746,121.931 M190.91,108.335
	c-2.916,0-3.866,2.523-3.866,5.144c0,2.687,0.819,5.341,3.735,5.341c2.883,0,3.866-2.557,3.866-5.242
	C194.645,110.891,193.792,108.335,190.91,108.335z"/>
<path fill="#2D2E87" d="M205.622,121.931c-1.704,0-3.571-0.491-5.045-1.146c-0.295-0.131-0.393-0.327-0.393-0.524
	c0-0.098,0.033-0.196,0.066-0.294l0.523-1.671c0.099-0.328,0.263-0.459,0.492-0.459c0.098,0,0.196,0,0.328,0.065
	c1.441,0.59,2.981,1.016,4.127,1.016c1.442,0,2.425-0.656,2.425-1.737c0-0.917-0.623-1.407-1.966-1.932l-2.588-0.984
	c-1.867-0.687-3.374-2.129-3.374-4.355c0-3.21,3.013-4.686,5.929-4.686c1.573,0,3.113,0.263,4.75,0.983
	c0.263,0.131,0.394,0.262,0.394,0.459c0,0.097-0.033,0.196-0.066,0.327l-0.557,1.768c-0.065,0.231-0.229,0.362-0.459,0.362
	c-0.098,0-0.229-0.033-0.327-0.067c-1.081-0.425-2.49-0.785-3.538-0.785c-1.376,0-2.064,0.754-2.064,1.507
	c0,0.721,0.36,1.18,1.605,1.672l2.949,1.212c1.736,0.721,3.112,2.062,3.112,4.192C211.945,120.293,208.964,121.931,205.622,121.931"
	/>
<path fill="#2D2E87" d="M224.986,118.131c0.36-0.131,0.589-0.164,0.721,0.295l0.425,1.441c0.066,0.229,0.098,0.426,0.098,0.557
	c0,0.262-0.163,0.394-0.458,0.524c-1.573,0.721-3.014,0.982-4.751,0.982c-5.044,0-7.829-3.145-7.829-8.189
	c0-5.078,3.047-8.519,8.124-8.519c1.475,0,3.015,0.295,4.391,0.917c0.425,0.197,0.425,0.427,0.327,0.853l-0.426,1.735
	c-0.066,0.296-0.196,0.459-0.393,0.459c-0.098,0-0.229-0.064-0.361-0.132c-0.95-0.392-1.998-0.72-3.145-0.72
	c-2.817,0-4.422,1.999-4.422,5.209c0,3.146,1.442,5.307,4.259,5.307C222.955,118.851,223.839,118.59,224.986,118.131"/>
<path fill="#2D2E87" d="M230.589,103.552c-1.081,0-2.227-0.721-2.227-2.03c0-1.311,1.081-2.097,2.227-2.097
	c1.114,0,2.196,0.753,2.196,2.064C232.785,102.766,231.67,103.552,230.589,103.552 M232.588,120.718c0,0.59-0.262,0.82-0.819,0.82
	h-2.293c-0.59,0-0.852-0.23-0.852-0.82v-14.314c0-0.559,0.328-0.754,0.852-0.754h2.293c0.524,0,0.819,0.164,0.819,0.754V120.718z"/>
<path fill="#2D2E87" d="M248.281,117.967c0.36-0.131,0.688-0.197,0.818,0.294l0.459,1.671c0.032,0.164,0.065,0.295,0.065,0.395
	c0,0.229-0.131,0.392-0.524,0.557c-1.604,0.72-3.8,1.048-5.503,1.048c-5.143,0-8.19-3.275-8.19-8.387
	c0-4.914,3.243-8.321,8.124-8.321c1.999,0,3.637,0.753,4.784,1.966c1.507,1.571,1.933,3.637,1.933,5.864v0.491
	c0,0.787-0.262,0.951-1.081,0.951h-9.599c0.263,2.521,2.097,4.259,4.685,4.259C245.627,118.754,247.003,118.459,248.281,117.967
	 M246.348,111.906c0-0.065,0-0.294,0-0.36c-0.065-1.703-1.048-3.276-3.047-3.276c-2.129,0-3.407,1.703-3.669,3.637H246.348z"/>
<path fill="#2D2E87" d="M266.924,120.686c0,0.558-0.196,0.853-0.786,0.853h-2.358c-0.59,0-0.786-0.295-0.786-0.853v-8.91
	c0-1.803-0.491-3.079-2.49-3.079c-1.277,0-2.85,0.688-3.865,1.571v10.45c0,0.559-0.229,0.82-0.787,0.82h-2.391
	c-0.492,0-0.787-0.262-0.787-0.786v-14.284c0-0.523,0.229-0.818,0.819-0.818h2.13c0.458,0,0.753,0.131,0.786,0.622l0.032,0.853
	c1.508-1.213,3.407-1.901,5.308-1.901c3.669,0,5.176,2.293,5.176,5.864V120.686"/>
<path fill="#2D2E87" d="M281.211,118.131c0.36-0.131,0.59-0.164,0.721,0.295l0.426,1.441c0.066,0.229,0.099,0.426,0.099,0.557
	c0,0.262-0.164,0.394-0.459,0.524c-1.572,0.721-3.014,0.982-4.75,0.982c-5.045,0-7.83-3.145-7.83-8.189
	c0-5.078,3.047-8.519,8.125-8.519c1.475,0,3.014,0.295,4.39,0.917c0.426,0.197,0.426,0.427,0.328,0.853l-0.426,1.735
	c-0.065,0.296-0.197,0.459-0.394,0.459c-0.099,0-0.229-0.064-0.36-0.132c-0.95-0.392-1.998-0.72-3.145-0.72
	c-2.817,0-4.423,1.999-4.423,5.209c0,3.146,1.441,5.307,4.259,5.307C279.18,118.851,280.064,118.59,281.211,118.131"/>
<path fill="#2D2E87" d="M296.514,117.967c0.36-0.131,0.688-0.197,0.818,0.294l0.459,1.671c0.032,0.164,0.065,0.295,0.065,0.395
	c0,0.229-0.131,0.392-0.524,0.557c-1.605,0.72-3.8,1.048-5.504,1.048c-5.144,0-8.189-3.275-8.189-8.387
	c0-4.914,3.243-8.321,8.124-8.321c1.999,0,3.637,0.753,4.783,1.966c1.507,1.571,1.933,3.637,1.933,5.864v0.491
	c0,0.787-0.262,0.951-1.081,0.951h-9.599c0.262,2.521,2.098,4.259,4.685,4.259C293.859,118.754,295.235,118.459,296.514,117.967
	 M294.58,111.906c0-0.065,0-0.294,0-0.36c-0.065-1.703-1.048-3.276-3.047-3.276c-2.129,0-3.406,1.703-3.669,3.637H294.58z"/>
<path fill="#2D2E87" d="M318.499,98.376c0.557,0.229,0.426,0.688,0.36,1.179l-0.229,1.376c-0.065,0.295-0.163,0.492-0.426,0.492
	c-0.131,0-0.229-0.034-0.36-0.065c-0.656-0.229-1.441-0.427-2.228-0.427c-1.966,0-2.392,1.312-2.392,3.21v1.509h3.637
	c0.393,0,0.655,0.131,0.655,0.557v1.54c0,0.426-0.263,0.622-0.655,0.622h-3.637v12.253c0,0.59-0.196,0.917-0.819,0.917h-2.358
	c-0.557,0-0.786-0.295-0.786-0.853v-12.317h-1.77c-0.59,0-0.688-0.131-0.688-0.818v-1.247c0-0.392,0.196-0.653,0.622-0.653h1.835
	v-0.886c0-1.081,0.098-1.933,0.229-2.653c0.523-2.751,2.26-4.422,5.536-4.422C316.107,97.688,317.549,97.95,318.499,98.376"/>
<path fill="#2D2E87" d="M325.479,121.931c-5.34,0-7.797-3.604-7.797-8.387c0-4.717,2.883-8.321,7.993-8.321
	c5.34,0,7.797,3.537,7.797,8.354C333.472,118.295,330.589,121.931,325.479,121.931 M325.642,108.335
	c-2.915,0-3.865,2.523-3.865,5.144c0,2.687,0.819,5.341,3.734,5.341c2.883,0,3.866-2.557,3.866-5.242
	C329.377,110.891,328.525,108.335,325.642,108.335z"/>
<path fill="#2D2E87" d="M344.744,105.354c0.229,0.066,0.327,0.164,0.327,0.427c0,0.098-0.098,0.721-0.393,2.621
	c-0.065,0.393-0.263,0.49-0.59,0.426c-0.262-0.067-0.59-0.1-0.885-0.1c-1.113,0-2.326,0.591-3.145,1.573v10.417
	c0,0.525-0.229,0.82-0.787,0.82h-2.391c-0.524,0-0.787-0.262-0.787-0.82v-14.25c0-0.654,0.328-0.818,0.819-0.818h2.097
	c0.524,0,0.819,0.164,0.819,0.622l0.032,1.048c1.016-1.277,2.13-2.097,3.965-2.097C344.089,105.223,344.449,105.256,344.744,105.354
	"/>
<path fill="#2D2E87" d="M362.993,118.393c0.131-0.032,0.262-0.065,0.36-0.065c0.196,0,0.327,0.099,0.394,0.393l0.327,1.639
	c0.065,0.394-0.065,0.654-0.459,0.818c-1.016,0.426-2.358,0.754-3.669,0.754c-1.671,0-3.112-0.426-3.931-1.376
	c-1.016-1.146-1.049-2.489-1.049-4.881v-7.306h-1.54c-0.622,0-0.721-0.131-0.721-0.818v-1.247c0-0.392,0.197-0.653,0.59-0.653h1.671
	v-3.571c0-0.557,0.295-0.721,0.819-0.786l2.522-0.295c0.426,0,0.622,0.229,0.622,0.721v3.932h3.702c0.394,0,0.622,0.131,0.622,0.557
	v1.54c0,0.393-0.262,0.622-0.655,0.622h-3.669v7.502c0,0.982,0.065,1.704,0.426,2.228c0.295,0.427,0.754,0.688,1.54,0.688
	C361.716,118.786,362.403,118.59,362.993,118.393"/>
<path fill="#2D2E87" d="M380.424,120.883c0,0.491-0.098,0.655-0.523,0.655h-2.883c-0.459,0-0.558-0.131-0.558-0.655v-9.107
	c0-1.769-0.491-3.079-2.457-3.079c-1.277,0-2.915,0.688-3.931,1.571v10.615c0,0.491-0.132,0.655-0.623,0.655h-2.817
	c-0.393,0-0.524-0.164-0.524-0.59V99.294c0-0.59,0.263-0.754,0.721-0.82c2.392-0.326,2.556-0.326,2.687-0.326
	c0.36,0,0.558,0.163,0.558,0.621v8.224c1.376-1.147,3.439-1.77,5.176-1.77c3.669,0,5.176,2.327,5.176,5.864V120.883"/>
<path fill="#2D2E87" d="M395.923,117.967c0.36-0.131,0.688-0.197,0.818,0.294l0.459,1.671c0.032,0.164,0.065,0.295,0.065,0.395
	c0,0.229-0.131,0.392-0.524,0.557c-1.605,0.72-3.8,1.048-5.504,1.048c-5.144,0-8.189-3.275-8.189-8.387
	c0-4.914,3.243-8.321,8.124-8.321c1.999,0,3.637,0.753,4.783,1.966c1.507,1.571,1.933,3.637,1.933,5.864v0.491
	c0,0.787-0.262,0.951-1.081,0.951h-9.599c0.262,2.521,2.097,4.259,4.685,4.259C393.269,118.754,394.645,118.459,395.923,117.967
	 M393.989,111.906c0-0.065,0-0.294,0-0.36c-0.065-1.703-1.048-3.276-3.047-3.276c-2.13,0-3.406,1.703-3.669,3.637H393.989z"/>
<path fill="#2D2E87" d="M417.909,98.376c0.557,0.229,0.426,0.688,0.36,1.179l-0.229,1.376c-0.065,0.295-0.163,0.492-0.426,0.492
	c-0.131,0-0.229-0.034-0.36-0.065c-0.655-0.229-1.441-0.427-2.228-0.427c-1.966,0-2.392,1.312-2.392,3.21v1.509h3.637
	c0.393,0,0.655,0.131,0.655,0.557v1.54c0,0.426-0.263,0.622-0.655,0.622h-3.637v12.253c0,0.59-0.197,0.917-0.819,0.917h-2.358
	c-0.557,0-0.786-0.295-0.786-0.853v-12.317h-1.77c-0.589,0-0.688-0.131-0.688-0.818v-1.247c0-0.392,0.196-0.653,0.622-0.653h1.835
	v-0.886c0-1.081,0.098-1.933,0.229-2.653c0.523-2.751,2.26-4.422,5.537-4.422C415.518,97.688,416.959,97.95,417.909,98.376"/>
<path fill="#2D2E87" d="M432.776,120.621c0,0.687-0.196,0.917-0.852,0.917h-2.097c-0.426,0-0.754-0.23-0.786-0.655l-0.033-0.819
	c-1.507,1.213-3.309,1.867-5.209,1.867c-3.669,0-5.176-2.325-5.176-5.863v-9.664c0-0.559,0.327-0.754,0.852-0.754h2.293
	c0.524,0,0.819,0.164,0.819,0.754v8.976c0,1.801,0.459,3.047,2.425,3.047c1.244,0,2.817-0.688,3.8-1.573v-10.449
	c0-0.559,0.295-0.754,0.819-0.754h2.325c0.524,0,0.819,0.164,0.819,0.754V120.621"/>
<path fill="#2D2E87" d="M445.098,118.393c0.131-0.032,0.262-0.065,0.36-0.065c0.196,0,0.328,0.099,0.394,0.393l0.327,1.639
	c0.065,0.394-0.065,0.654-0.459,0.818c-1.016,0.426-2.358,0.754-3.669,0.754c-1.671,0-3.113-0.426-3.931-1.376
	c-1.017-1.146-1.049-2.489-1.049-4.881v-7.306h-1.54c-0.622,0-0.721-0.131-0.721-0.818v-1.247c0-0.392,0.197-0.653,0.59-0.653h1.671
	v-3.571c0-0.557,0.295-0.721,0.819-0.786l2.522-0.295c0.426,0,0.622,0.229,0.622,0.721v3.932h3.702c0.394,0,0.622,0.131,0.622,0.557
	v1.54c0,0.393-0.262,0.622-0.655,0.622h-3.669v7.502c0,0.982,0.065,1.704,0.426,2.228c0.295,0.427,0.754,0.688,1.54,0.688
	C443.82,118.786,444.508,118.59,445.098,118.393"/>
<path fill="#2D2E87" d="M462.331,120.621c0,0.687-0.196,0.917-0.853,0.917h-2.096c-0.426,0-0.754-0.23-0.786-0.655l-0.034-0.819
	c-1.506,1.213-3.308,1.867-5.209,1.867c-3.668,0-5.175-2.325-5.175-5.863v-9.664c0-0.559,0.327-0.754,0.852-0.754h2.293
	c0.524,0,0.819,0.164,0.819,0.754v8.976c0,1.801,0.459,3.047,2.425,3.047c1.245,0,2.817-0.688,3.8-1.573v-10.449
	c0-0.559,0.295-0.754,0.82-0.754h2.324c0.524,0,0.819,0.164,0.819,0.754V120.621"/>
<path fill="#2D2E87" d="M474.521,105.354c0.229,0.066,0.327,0.164,0.327,0.427c0,0.098-0.098,0.721-0.393,2.621
	c-0.065,0.393-0.263,0.49-0.59,0.426c-0.263-0.067-0.59-0.1-0.885-0.1c-1.113,0-2.326,0.591-3.145,1.573v10.417
	c0,0.525-0.229,0.82-0.787,0.82h-2.391c-0.524,0-0.787-0.262-0.787-0.82v-14.25c0-0.654,0.328-0.818,0.819-0.818h2.097
	c0.524,0,0.819,0.164,0.819,0.622l0.032,1.048c1.016-1.277,2.13-2.097,3.964-2.097C473.866,105.223,474.227,105.256,474.521,105.354
	"/>
<path fill="#2D2E87" d="M488.049,117.967c0.36-0.131,0.688-0.197,0.818,0.294l0.459,1.671c0.032,0.164,0.065,0.295,0.065,0.395
	c0,0.229-0.131,0.392-0.524,0.557c-1.605,0.72-3.8,1.048-5.504,1.048c-5.144,0-8.189-3.275-8.189-8.387
	c0-4.914,3.243-8.321,8.124-8.321c1.999,0,3.637,0.753,4.783,1.966c1.507,1.571,1.933,3.637,1.933,5.864v0.491
	c0,0.787-0.262,0.951-1.081,0.951h-9.599c0.262,2.521,2.097,4.259,4.685,4.259C485.395,118.754,486.771,118.459,488.049,117.967
	 M486.115,111.906c0-0.065,0-0.294,0-0.36c-0.065-1.703-1.048-3.276-3.047-3.276c-2.129,0-3.406,1.703-3.669,3.637H486.115z"/>
<path fill="#2D2E87" d="M61.657,76.972c-2.193,3.018-4.955,5.495-7.991,7.33l2.232,4.427l4.593-2.4l3.134,5.99l-2.989,1.539
	l-1.522-2.951l-6.226,3.186l1.521,2.969L51.4,98.611l-3.133-5.991l4.6-2.309l-2.305-4.401c-3.405,1.503-7.072,2.297-10.784,2.347
	l-0.223,4.922l5.18,0.212l-0.283,6.757l-3.361-0.161l0.167-3.321l-6.996-0.352l-0.161,3.338l-3.38-0.17l0.275-6.755l5.145,0.3
	l0.223-4.936c-3.61-0.397-7.158-1.518-10.49-3.408l-2.639,4.134l4.378,2.778l-3.621,5.709L21.16,95.48l1.807-2.792l-5.881-3.803
	l-1.812,2.809l-2.844-1.828l3.617-5.712l4.307,2.83l2.652-4.159c-2.987-2.225-5.431-5.018-7.24-8.061l-4.339,2.239l2.406,4.596
	l-5.992,3.127l-1.54-2.992l2.957-1.52l-3.193-6.229l-2.969,1.527L1.548,72.5l5.993-3.13l2.31,4.603l4.349-2.273
	c-1.455-3.36-2.275-6.947-2.314-10.613l-4.91-0.193l-0.216,5.18L0,65.791l0.167-3.362l3.316,0.165L3.832,55.6L0.5,55.436
	l0.163-3.386l6.757,0.287l-0.303,5.137l4.947,0.198c0.46-4.015,1.864-8.012,4.182-11.645c8.154-12.801,25.142-16.572,37.941-8.414
	c12.291,7.831,16.266,23.852,9.339,36.444l4.176,2.671l2.77-4.378l5.71,3.62l-1.824,2.831L71.566,77l-3.792,5.876l2.796,1.812
	l-1.826,2.848l-5.711-3.623l2.831-4.301L61.657,76.972"/>
<path fill="#D4007F" d="M117.506,114.167c4.222-1.061,8.286-3.139,11.839-6.135c12.501-10.551,14.082-29.24,3.532-41.744
	c-10.553-12.498-29.241-14.079-41.741-3.528c-12.109,10.216-13.975,28.062-4.497,40.534l-4.009,3.383l-1.221-1.448l-2.785,2.352
	l4.866,5.766l2.785-2.351l-1.27-1.506l4.037-3.401c2.795,2.872,6.106,5.116,9.613,6.606l-1.735,4.989l-1.779-0.641l-1.24,3.43
	l7.095,2.56l1.239-3.43l-1.853-0.668l1.801-4.994c3.799,1.062,7.782,1.393,11.704,0.911l0.914,5.224l-1.866,0.33l0.643,3.595
	l7.425-1.333l-0.641-3.591l-1.94,0.348L117.506,114.167"/>
<path fill="#F0B500" d="M94.982,26.103c10.468-7.683,25.18-5.419,32.859,5.052c7.679,10.47,5.414,25.181-5.054,32.862
	c-10.471,7.676-25.183,5.412-32.863-5.057C82.247,48.491,84.511,33.779,94.982,26.103 M131.619,26.096
	c-2.622-3.151-5.769-5.621-9.228-7.391l1.829-4.123c1.658-0.014,3.243-0.978,3.954-2.595c0.969-2.2-0.029-4.769-2.232-5.74
	c-2.199-0.966-4.767,0.034-5.737,2.235c-0.703,1.594-0.365,3.382,0.707,4.614l-1.822,4.165c-3.726-1.365-7.708-1.97-11.671-1.781
	l-0.502-4.489c1.429-0.844,2.319-2.472,2.125-4.23c-0.258-2.389-2.41-4.114-4.798-3.851c-2.392,0.262-4.115,2.411-3.854,4.801
	c0.19,1.731,1.376,3.112,2.919,3.647l0.561,4.513c-3.853,0.651-7.599,2.063-11.048,4.302l-2.688-3.645
	c0.816-1.442,0.776-3.299-0.268-4.723c-1.421-1.94-4.148-2.357-6.086-0.936s-2.356,4.146-0.934,6.084
	c1.027,1.405,2.746,2.011,4.35,1.695l2.708,3.671c-3.13,2.604-5.613,5.758-7.379,9.195l-4.151-1.796
	c-0.018-1.661-0.981-3.248-2.598-3.958c-2.199-0.97-4.77,0.031-5.738,2.234c-0.969,2.199,0.032,4.767,2.232,5.735
	c1.595,0.703,3.385,0.369,4.615-0.707l4.189,1.804c-1.375,3.738-1.993,7.721-1.796,11.691l-4.497,0.504
	c-0.844-1.43-2.472-2.321-4.226-2.13c-2.39,0.263-4.116,2.412-3.855,4.803c0.264,2.391,2.412,4.113,4.801,3.855
	c1.732-0.193,3.113-1.378,3.644-2.923l4.53-0.523c0.66,3.807,2.079,7.561,4.285,10.983l-3.641,2.713
	c-1.444-0.812-3.297-0.773-4.724,0.272c-1.939,1.421-2.355,4.145-0.937,6.085c1.423,1.939,4.148,2.356,6.086,0.935
	c1.404-1.03,2.006-2.749,1.696-4.348l3.69-2.708c2.605,3.132,5.747,5.615,9.193,7.38l-1.816,4.148
	c-1.659,0.018-3.245,0.978-3.957,2.596c-0.969,2.202,0.033,4.772,2.233,5.739c2.198,0.971,4.77-0.027,5.739-2.233
	c0.697-1.593,0.364-3.385-0.708-4.614l1.861-4.167c3.701,1.347,7.676,1.957,11.621,1.771l0.514,4.499
	c-1.431,0.847-2.32,2.47-2.13,4.227c0.264,2.394,2.412,4.119,4.804,3.858c2.389-0.267,4.113-2.414,3.851-4.804
	c-0.189-1.73-1.374-3.112-2.918-3.645l-0.457-4.541c4.352-0.766,8.638-2.538,12.431-5.321c8.304-6.087,12.257-15.732,11.819-25.296
	l4.742-0.474c0.843,1.429,2.471,2.321,4.228,2.128c2.389-0.263,4.115-2.411,3.851-4.803c-0.262-2.389-2.412-4.116-4.801-3.852
	c-1.73,0.188-3.111,1.375-3.642,2.918l-4.519,0.498c-0.655-3.834-2.075-7.587-4.304-11.034l3.64-2.668
	c1.447,0.816,3.301,0.773,4.724-0.27c1.941-1.422,2.359-4.147,0.936-6.088c-1.419-1.936-4.145-2.358-6.083-0.933
	c-1.405,1.027-2.01,2.746-1.696,4.348L131.619,26.096z"/>
</svg>
